<?xml version="1.0" encoding="UTF-8"?>
<svg viewBox="0 0 833.83966 275.00003" xmlns="http://www.w3.org/2000/svg" xmlns:xlink="http://www.w3.org/1999/xlink">
 <defs>
  <linearGradient id="a">
   <stop offset="0"/>
   <stop stop-opacity="0" offset="1"/>
  </linearGradient>
  <linearGradient id="c">
   <stop stop-color="#999" offset="0"/>
   <stop stop-color="#999" stop-opacity="0" offset="1"/>
  </linearGradient>
  <linearGradient id="d" x1="64.111" x2="76.933" gradientUnits="userSpaceOnUse">
   <stop stop-color="#4d4d4d" offset="0"/>
   <stop stop-color="#4d4d4d" stop-opacity="0" offset="1"/>
  </linearGradient>
  <linearGradient id="h" x1="197.33" x2="391.35" gradientUnits="userSpaceOnUse" xlink:href="#a"/>
  <linearGradient id="g" x1="144.92" x2="353.8" gradientUnits="userSpaceOnUse" xlink:href="#a"/>
  <linearGradient id="f" x1="-7.5983" x2="110.18" gradientTransform="matrix(.94136 -.12963 0 .97749 530.42 952.65)" gradientUnits="userSpaceOnUse" xlink:href="#c"/>
  <linearGradient id="e" x1="-19.048" x2="101.09" gradientUnits="userSpaceOnUse" xlink:href="#c"/>
  <linearGradient id="b" x1="26" x2="88.093" gradientUnits="userSpaceOnUse" xlink:href="#a"/>
 </defs>
 <g transform="translate(89.529 -1502.5)">
  <path d="m251.04 1514.8c6.5915 1.55 6.1261 17.633 8.7176 26.183s9.6129 11.616 11.832 18.821 8.8476 92.341 9.0666 94.546-4.9494 9.4723-7.0708 8.832l-9.7176-2.9327c-2.1215-0.6403-8.588-4.8684-8.8319-7.0709l-14.817-133.8c-0.24392-2.2025 4.2294-6.132 10.821-4.582z" fill="#282828" fill-rule="evenodd"/>
  <path transform="translate(-95.529 1498.8)" d="m326.5 33.953a10 24.25 0 1 1 -20 0 10 24.25 0 1 1 20 0z" fill="#282828" fill-rule="evenodd"/>
  <path d="m132.99 1553.4 73.69-19.297s20.083-8.4389 29.7-1.8301 12.091 38.397 12.091 38.397l-83.646 0.8933z" fill="#434343" fill-rule="evenodd"/>
  <path d="m436.4 1608.2 242.15 11.397c1.3286 0 22.344 14.367 22.344 15.695l20.895 70.237-69.453 18.111-155.65 5.4377-60.286-3.1042c-1.3286 0-2.3982-1.0696-2.3982-2.3983v-112.98c0-1.3286 1.0696-2.3982 2.3982-2.3982z"/>
  <path d="m-52.609 1620.5h205.89c1.3733 0 2.4788 1.1056 2.4788 2.4789v111.87c0 1.3733-1.1056 2.4788-2.4788 2.4788l-193.55-10.448-14.826-103.9c0-1.3733 1.1056-2.4789 2.4788-2.4789z"/>
  <path transform="matrix(1.4185 0 0 1.2688 47.219 748.42)" d="m50.101 751.04c0 33.178-24.77 60.074-55.325 60.074s-55.325-26.896-55.325-60.074 24.77-60.074 55.325-60.074 55.325 26.896 55.325 60.074z"/>
  <path d="m101.09 1702.3c0 33.956-26.911 61.515-60.068 61.515s-60.068-27.559-60.068-61.515 26.911-61.515 60.068-61.515 60.068 27.559 60.068 61.515z" fill="url(#e)"/>
  <path transform="matrix(1.1683 0 0 1.2615 -26.051 726.85)" d="m88.093 773.72c0 16.523-13.9 29.918-31.046 29.918s-31.046-13.395-31.046-29.918 13.9-29.918 31.046-29.918 31.046 13.395 31.046 29.918z" fill="url(#b)"/>
  <path d="m36.77 1641h9.9523a2.5324 2.5324 0 0 1 2.5324 2.5324v46.647a2.5324 2.5324 0 0 1 -2.5324 2.5324h-9.9523a2.5324 2.5324 0 0 1 -2.5324 -2.5324v-46.647a2.5324 2.5324 0 0 1 2.5324 -2.5324" fill="#666"/>
  <path d="m-18.64462,1694.1419 2.09075-9.3865c.47165-1.3518.85042-2.9711 2.25788-2.8066l48.06995,7.2472c1.40745.1645.88923-.3915.41758.9603l-3.49385,10.014c-.47165,1.3519-1.98445,2.3078-3.3919,2.1432l-45.88576-5.3478c-.03731-2.5041-.53631-1.4719-.06466-2.8238z" fill="#808080"/>
  <path d="m29.789 1706.6 8.1393 5.8988c1.1272 0.817 3.6857 0.5547 2.8783 1.6952l-29.145 39.762c-0.80734 1.1405-1.9366 1.1411-3.0638 0.3242l-7.7111-6.2455c-1.1272-0.8169-2.241-1.7862-1.4337-2.9267l27.632-43.009c0.80734-1.1405 1.5776 3.6844 2.7047 4.5013z" fill="#666"/>
  <path d="m65.351 1681.5h14.266a2.5324 2.5324 0 0 1 2.5324 2.5324v40.633a2.5324 2.5324 0 0 1 -2.5324 2.5324h-14.266a2.5324 2.5324 0 0 1 -2.5324 -2.5324v-40.633a2.5324 2.5324 0 0 1 2.5324 -2.5324" fill="#ffea2a"/>
  <path d="m42.088 1710.9 7.5096-7.4189c1.0138-1.0015 2.7883-1.1821 3.9788-0.4048l39.585 25.844c1.1905 0.7772 1.3328 2.2092 0.31906 3.2108l-6.3288 9.0425c-1.0138 1.0016-3.9691-0.4416-5.1596-1.2188l-41.765-26.824c-1.1905-0.7773 0.84708-1.229 1.8608-2.2305z" fill="#666"/>
  <path transform="matrix(.68601 0 0 .66822 4.2507 1190.6)" d="m73.371 764.7c0 11.343-9.0894 20.539-20.302 20.539s-20.302-9.1957-20.302-20.539 9.0894-20.539 20.302-20.539 20.302 9.1957 20.302 20.539z"/>
  <path d="m90.1 1666.9 4.9925 8.2437c0.71655 1.201 1.2461 2.6291 0.05915 3.3541l-40.012 24.414c-1.187 0.7251 0.18711-2.109-0.52943-3.31l-0.54808-2.4482-0.78864-1.6294-0.87589-1.6447-1.7505-2.215c-0.71655-1.2011-3.9104-1.3425-2.7235-2.0675l39.467-24.108c1.187-0.7251 1.9928 0.2095 2.7093 1.4106z" fill="#666"/>
  <path transform="matrix(1.0201 0 0 1 -32.225 839.23)" d="m76.933 861.69c0 3.803-2.8703 6.8859-6.411 6.8859s-6.411-3.0829-6.411-6.8859 2.8703-6.8859 6.411-6.8859 6.411 3.0829 6.411 6.8859z" fill="url(#d)"/>
  <path transform="matrix(1.309 -.18026 0 1.2016 584.42 788.98)" d="m50.101 751.04c0 33.178-24.77 60.074-55.325 60.074s-55.325-26.896-55.325-60.074 24.77-60.074 55.325-60.074 55.325 26.896 55.325 60.074z"/>
  <path d="m634.13 1685.5c0 32.158-24.834 61.677-55.434 65.891s-55.434-18.466-55.434-50.624 24.834-61.677 55.434-65.891 55.434 18.466 55.434 50.624z" fill="url(#f)"/>
  <path transform="matrix(1.0782 -.14847 0 1.1947 516.8 777.87)" d="m88.093 773.72c0 16.523-13.9 29.918-31.046 29.918s-31.046-13.395-31.046-29.918 13.9-29.918 31.046-29.918 31.046 13.395 31.046 29.918z" fill="url(#b)"/>
  <path transform="matrix(.99065,-.13642,0,1,0,0)" d="m580.24 1714.8h9.1927a2.3982 2.3982 0 0 1 2.3982 2.3982v44.177a2.3982 2.3982 0 0 1 -2.3982 2.3982h-9.1927a2.3982 2.3982 0 0 1 -2.3982 -2.3982v-44.177a2.3982 2.3982 0 0 1 2.3982 -2.3982" fill="#666"/>
  <path d="m523.63756,1692.9924 1.92943-9.155c.43527-1.3402.7848-2.9219 2.08367-2.945l44.36107.7547c1.29886-.023.82062-.4839.38536.8563l-3.22427,9.9277c-.43526,1.3402-1.83133,2.4377-3.13019,2.4608l-42.34539.7665c-.0344-2.3667-.49494-1.3258-.0597-2.666z" fill="#808080"/>
  <path d="m568.33 1698.7 7.5113 4.5521c1.0402 0.6304 3.4013 0.057 2.6562 1.2396l-26.897 41.36c-0.74504 1.1827-1.7871 1.3268-2.8274 0.6964l-7.1161-4.9347c-1.0402-0.6305-2.0681-1.4069-1.323-2.5896l25.5-44.242c0.74504-1.1827 1.4558 3.2888 2.496 3.9192z" fill="#666"/>
  <path transform="matrix(.99065,-.13642,0,1,0,0)" d="m606.86 1753.1h13.705a2.3982 2.3982 0 0 1 2.3982 2.3982v38.331a2.3982 2.3982 0 0 1 -2.3982 2.3982h-13.705a2.3982 2.3982 0 0 1 -2.3982 -2.3982v-38.331a2.3982 2.3982 0 0 1 2.3982 -2.3982" fill="#ffea2a"/>
  <path d="m579.68 1701.2 6.9302-7.9803c0.93555-1.0773 2.5732-1.4738 3.6718-0.889l36.531 19.445c1.0987 0.5848 1.23 1.9229 0.29444 3.0002l-5.8405 9.3679c-0.93554 1.0773-3.6629 0.086-4.7615-0.4986l-38.543-20.096c-1.0987-0.5848 0.78172-1.2715 1.7173-2.3488z" fill="#666"/>
  <path transform="matrix(.63308 -.08718 0 .63283 544.77 1213.2)" d="m73.371 764.7c0 11.343-9.0894 20.539-20.302 20.539s-20.302-9.1957-20.302-20.539 9.0894-20.539 20.302-20.539 20.302 9.1957 20.302 20.539z"/>
  <path d="m623.99 1653.4 4.6073 7.1726c0.66126 1.0464 1.15 2.3315 0.0546 3.169l-36.925 28.206c-1.0954 0.8375 0.17268-2.0211-0.48858-3.0674l-0.5058-2.2489-0.72779-1.4429-0.80831-1.4463-1.6154-1.8753c-0.66126-1.0464-3.6087-0.7744-2.5133-1.6119l36.422-27.847c1.0954-0.8375 1.839-0.055 2.5003 0.9917z" fill="#666"/>
  <path d="m-36.588 1548.1 5.3806-1.9935 187.48-5.9325 18.894 10.297 79.045 17.51 139.07 15.242 156.05 0.9608-97.371-40.596-64.819-19.587 6.1493-20.487 62.761 20.054 53.854 21.432 39.842 8.5163 4.9129 1.2783 4.8156 1.182 42.47 12.119 6.054 2.3032c0.28098 0 3.3997 0.7747 8.7037 3.0814 20.353 8.8513 67.938 30.371 67.938 31.449l29.106 18.269 20.019 17.491 8.2188 11.326 2.3272 4.1888-0.21055 4.1775-4.415 19.985-8.3297 25.533-1.1568 2.818-1.6871 1.4157-3.5897 2.6407-3.2192 1.6694-3.1774 1.0102-24.167 5.9149-5.5719 1.1845-5.7682 0.7487-31.485 0.3244 3.1561-23.845 1.233-16.61-3.8016-18.094-12.596-24.135-17.409-14.041-19.516-8.1689-22.909-1.7864-18.176 3.1613-21.309 9.8854-18.966 16.672-15.126 22.46-4.0371 21.785 1.3644 25.245 3.0122 12.615-354.7 8.7176-32.43-1.8355 1.5111-7.709 2.1786-19.788-1.8767-19.018-1.8482-8.8666-2.2857-6.0783-11.58-20.906-16.072-14.138-13.123-8.0413-3.928-1.9954-4.1375-1.5372-10.467-3.346-4.4422-0.8695-4.2756-0.2648-12.751-1.014c-6.6878 0.7658-58.076 3.3463-78.325 59.048l-0.82731 15.754 1.4369 14.73 2.7725 15.95-38.648-28.889-5.4865-7.1568-2.8756-7.6758-3.2691-23.18-0.53169-15.931 15.283-63.286 1.7266-3.7251 1.0936-3.0861 7.6454-11.054 5.0304-5.1877c0-0.5035 2.0356-2.6606 5.8634-4.2802 3.6934-1.5627 8.1712-3.288 11.509-4.4875 2.5402-0.9131 4.4197-1.5214 4.7896-1.5214z" fill="#393c3f"/>
  <path d="m122.52 1717.8 398.2-1.1872" fill="none" stroke="#000"/>
  <path d="m488.37 1716.4-0.23745-69.334-2.137-25.407-2.8494-13.534-15.197-15.196" fill="none" stroke="#000"/>
  <path d="m290.63 1716.9-63.636-101.15 12.11-27.544" fill="none" stroke="#000"/>
  <path d="m100.44 1610.5 261.67 13.06" fill="none" stroke="#000"/>
  <path d="m-80.494 1608.6 63.398 17.808" fill="none" stroke="#000"/>
  <path d="m-17.334 1626.4 5.2238 12.347" fill="none" stroke="#000"/>
  <path d="m644.37 1634 81.207 8.0732" fill="none" stroke="#000"/>
  <path d="m520.68 1546.8 27.305 5.7187 34.565 10.209 12.758 3.0368 4.5251 10.822-37.795 6.5903-78.19-33.902-51.07-19.557-39.215-9.265 4.9242-15.942 51.068 16.396 53.239 21.282 17.887 4.6123z" fill-opacity=".9239"/>
  <path d="m432.71 1584.6 0.67367-6.5753 2.7491-5.451 2.9584-4.029 4.4174-3.0875 5.3396-1.9584 5.4496 0.3585 12.086 4.1444c1.3286 0 11.599 5.7592 11.599 7.0878l-13.119 15.743c0 1.3286-3.2066 1.9233-4.5353 1.9233l-14.775 15.351-11.059-2.7666c-1.3286 0 10.186-15.554 10.186-16.882l-11.971-3.8577z" fill="#171717" fill-opacity=".9891"/>
  <path d="m145.1 1612.4 52.428 3.0868c1.3286 0 156.26 5.5811 156.26 6.9098l-49.405 1.003-61.452-2.4465-87.772-1.0398 44.289 64.409c0 1.3286-1.0696 2.3982-2.3982 2.3982l-1.6146-6.4111c-1.3286 0-22.344-27.189-22.344-28.517l-23.032-27.259c0-1.3287-6.2912-12.134-4.9626-12.134z" fill="url(#g)"/>
  <path d="m-68.224 1569.5 30.108-5.4612c1.3286 0-4.9626 11.992-4.9626 13.321l-24.087 4.3131-11.474 26.604-4.0808-0.026 10.435-33.978c0-1.3286 2.7317-4.7728 4.0604-4.7728z" fill="#f60505"/>
  <path d="m724.44 1633.8c3.1282 3.0011 1.8076 2.9415-1.0754 5.4867l-79.448-37.397c-1.2186-0.5293-12.577-3.8954-12.048-5.114l9.8157-0.3062 9.9205 2.7158 19.394 7.4574 26.478 12.361 13.395 7.6631 13.569 7.1336z" fill="#c0c0c0"/>
  <path d="m197.62 1683.2 75.713 9.8081 118.02 12.251c0 1.3287-52.595 0.2613-53.924 0.2613l-129.12-2.8494c-1.3286 0-9.0467-0.1198-9.0467-1.4485l5.0207-3.7135-4.3084-11.91c0-1.3286-3.6793-2.3982-2.3507-2.3982z" fill="url(#h)"/>
  <path d="m-28.274 1552.2-11.895 6.9226 198.93-3.6097-8.213-8.2121z" fill="none" stroke="#000"/>
 </g>
</svg>
