<?xml version="1.0" encoding="utf-8"?>
<svg version="1.1" id="Layer_1" x="0px" y="0px" viewBox="0 0 300.054 300.054" style="enable-background:new 0 0 300.054 300.054;" xmlns="http://www.w3.org/2000/svg">
  <g>
    <g>
      <g>
        <path d="M298.653,126.572c-2.24-2.851-6.353-3.364-9.224-1.117c-18.233,14.31-40.132,0.876-50.398-7.184l3.619-3.617 c1.242-1.229,1.925-2.897,1.925-4.645s-0.69-3.41-1.925-4.645l-13.935-13.948l32.515-32.515c2.569-2.569,2.569-6.721,0-9.29 l-27.87-27.883c-1.222-1.235-2.891-1.925-4.645-1.925c-1.748,0-3.41,0.69-4.645,1.925L107.77,138.029 c0.177-1.581-0.208-3.165-1.112-4.473L83.118,99.32c-1.104-1.603-2.858-2.648-4.803-2.825c-1.978-0.177-3.863,0.519-5.249,1.899 L33.56,137.866c-1.36,1.353-2.043,3.239-1.905,5.151c0.145,1.912,1.13,3.659,2.681,4.79l33.422,24.381 c0.92,0.67,1.991,1.091,3.114,1.222l1.36,0.157l-19.106,19.106c-0.519,0.512-1.741,1.229-2.924,1.912 c-1.991,1.156-4.468,2.595-6.662,4.79c-11.412,11.419-11.819,29.578-0.94,40.445c5.125,5.138,12.43,8.068,20.025,8.068 c7.93,0,15.334-3.049,20.86-8.574c2.142-2.135,3.587-4.533,4.763-6.465c0.729-1.196,1.472-2.424,2.056-3.002l110.534-110.547 l13.942,13.922c2.575,2.569,6.721,2.569,9.29,0l5.573-5.569c10.305,8.396,25.952,17.125,42.119,17.125 c8.699,0,17.535-2.523,25.768-8.988C300.394,133.556,300.894,129.43,298.653,126.572z M74.117,160.572l-25.82-18.823 l28.474-28.461l17.66,25.676l-1.72,14.124l-8.644,8.644L74.117,160.572z M219.406,119.293l-13.942-13.922 c-2.569-2.575-6.715-2.575-9.29,0L81.029,220.53c-1.715,1.708-2.891,3.646-4.027,5.519c-0.926,1.524-1.807,2.976-2.805,3.975 c-3.048,3.042-7.155,4.717-11.576,4.717c-4.146,0-8.055-1.537-10.735-4.231c-5.67-5.657-5.23-15.676,0.94-21.865 c0.979-0.966,2.431-1.813,3.968-2.707c1.82-1.051,3.87-2.24,5.611-3.975l166.306-166.3l18.567,18.6l-32.515,32.515 c-2.569,2.575-2.569,6.715,0,9.29l13.935,13.948l-1.469,1.467c-1.202,0.257-2.348,0.849-3.281,1.785 c-0.929,0.931-1.516,2.068-1.771,3.26L219.406,119.293z" style="fill: rgb(0, 123, 255);"/>
        <path d="M20.801,139.252c1.675,0,3.344-0.637,4.619-1.905l47.232-46.811c2.582-2.562,2.595-6.701,0.039-9.29 c-2.549-2.589-6.695-2.602-9.29-0.039l-47.225,46.811c-2.589,2.562-2.602,6.701-0.046,9.29 C17.411,138.595,19.1,139.252,20.801,139.252z" style="fill: rgb(0, 123, 255);"/>
        <path d="M38.179,247.296l-19.421,17.424l-2.773-2.641l18.074-17.962c2.575-2.569,2.589-6.708,0.026-9.29 c-2.562-2.582-6.708-2.608-9.29-0.026L1.939,257.525c-1.255,1.261-1.964,2.956-1.938,4.737c0.02,1.774,0.762,3.449,2.037,4.684 l12.049,11.497c1.268,1.196,2.897,1.807,4.533,1.807c1.564,0,3.14-0.558,4.389-1.688l23.948-21.49 c2.7-2.424,2.924-6.583,0.499-9.277C45.025,245.088,40.879,244.858,38.179,247.296z" style="fill: rgb(0, 123, 255);"/>
      </g>
    </g>
  </g>
  <g/>
  <g/>
  <g/>
  <g/>
  <g/>
  <g/>
  <g/>
  <g/>
  <g/>
  <g/>
  <g/>
  <g/>
  <g/>
  <g/>
  <g/>
</svg>